<?xml version="1.0" encoding="utf-8"?>
<!-- Generator: Adobe Illustrator 19.0.0, SVG Export Plug-In . SVG Version: 6.00 Build 0)  -->
<svg version="1.1" id="Layer_1" xmlns="http://www.w3.org/2000/svg" xmlns:xlink="http://www.w3.org/1999/xlink" x="0px" y="0px"
	 viewBox="0 0 500 500" style="enable-background:new 0 0 500 500;" xml:space="preserve">
<style type="text/css">
	.st0{fill:#00AEEF;stroke:#FFFFFF;stroke-miterlimit:10;}
	.st1{fill:#1F1F5A;stroke:#FFFFFF;stroke-miterlimit:10;}
</style>
<path id="XMLID_9_" class="st0" d="M434.7,376.5l1.1,1.3c-28.1,29.8-65.9,51.8-109,62.2c-18,4.4-36.8,6.7-56.3,6.7
	c-120.1,0-217.4-88-217.4-196.7S150.5,52.1,270.5,53.4c26.5,0.3,52,4.8,75.5,12.8c0,0,0,0,0,0c-3,0.5-6.1,1-8.7,1.4
	c-4.3,0.6-7.4,1.1-7.4,1.1L318,64l-6.4-2.5l-5.1,1.2l-24.9,5.7l-3,2.5l-15.1,12.8l-15.7,12.1l-0.1,0l-21.4,6.4l-26.8,18.9l-0.4,0.5
	l-8.8,9.8l-1.8,21.9l-9.9,19.8c-1.1,2.1-1.8,4.3-2,6.7l-0.2,2.2l17,12.8l18,10.9l8.2,16.1l0.8,1.6l10.9,0.3l1.7,0.1l11.7,6.1
	l2.4,1.2l22.6,5.3l26,0.8l1.2,0l16.5-3l4.8-0.9l23.2,4.7l3.5,0.7l0.2,0l5.8-4.7l3.4-2.8c0.4-0.3,0.8-0.6,1.2-0.8
	c2.5-1.4,5.6-1.7,8.4-0.5l13,5.3l22.7,5.3l3.4,0.1c1.1,0,2.2,0.2,3.2,0.5c4,1.1,7.2,4,8.4,7.8l2.5,8.1l-10,20.2l-0.1,0.1l16.7,9.5
	l3.3,1.9l11.6,12l3.2,12l4.8,18L433,346.8l-6.8,6.3l-3.1,13.3l-0.1,0.4l9.6,8L434.7,376.5z"/>
<path id="XMLID_3_" class="st1" d="M434.7,377l1.1,1.3c-28.1,29.8-65.9,51.8-109,62.2c-7-1.8-12.2-6.2-11.3-11.7
	c1.7-10.9,0.2-23.5-8.8-35.9c-8-10.9-20.9-20.4-37.5-28c-10.1-4.6-18.3-7.8-30.8-10.8c-1.7-0.4-3.4-0.8-5.1-1.1
	c-24-4.7-49.9-2.3-72.3,5.1c-1.5,0.5-6.4,0.2-8.1,0.6c-14.7,3.2-30.6-0.1-39.2-7.5c-1.9-1.6-3.8-3.2-4.5-5.2
	c-2.8-7.8,19.6-32.8-0.3-41.1c-3.3-1.4-8.3-0.9-10-3.7c-5.7-9.6,18-16.6,18-16.6c-8.4-1.7-15.1-5.2-20.2-8.1
	c-2.6-1.5-2-7.7,0.1-12.6l3.5-2.2l14.2-8.5l2.8-5.6c-14.4-5.3-20.8-9.4-23.2-12.5c0.4-2.4,1.1-4.7,2.1-7c0,0,0,0,0,0
	c25.3-9,58-34.4,62.6-38c0.2,0,0.4-0.1,0.6-0.1c0-0.1,0-0.2,0-0.3c-4-52.1,41.1-102.2,117.8-127.2c2.1-0.7,4.2-1.4,6.4-2
	c0,0,0,0,0.1,0c0.8-0.3,1.6-0.5,2.4-0.7c0,0,0,0,0,0c20.8-0.2,41,2.2,60,7.1c0,0,0,0,0,0c-3,0.5-6.1,1-8.7,1.4
	c-4.3,0.6-7.4,1.1-7.4,1.1l-12-4.6l-6.6-0.4l-4.8-0.9l-21.8,5c-2,0.5-3.9,1.4-5.4,2.7l-0.6,0.5l-15.1,12.8l-15.7,12.1l-6.7,4
	l-8.5,0.1c-3.8,3.2-9.7,7.9-14.6,7.7l-18.5,13.5l-0.4,0.5l-8.8,9.8l-1.8,21.9l-9.9,19.8c-1.1,1.2-1.8,3.7-2,6.7h0
	c-0.1,1.3,0.7,2.6,1.9,3.1l14.9,11.5l18,11.3l8.2,16.1l0,0c0.5,1,1.5,1.6,2.6,1.6l9.1,0.3l0,0c1.4-1.1,3.3-1.1,4.7-0.1l8.7,6.3
	l2.4,1.2l22.6,5.3l26,0.8l1.2,0l16.5-3l4.8-0.9l23.2,4.7l3.5,0.7l0.2,0l5.8-4.7l3.4-2.8c0.4-0.3,0.8-0.6,1.2-0.8
	c2.5-1.4,5.6-1.7,8.4-0.5l13,5.3l22.7,5.3l3.4,0.1c1.1,0,2.2,0.2,3.2,0.5c4,1.1,7.2,4,8.4,7.8l2.5,8.1l-10,20.2l-0.1,0.1L424,287
	l3.3,1.9l11.6,12l3.2,12l4.8,18L433,347.2l-6.8,6.3l-3.1,13.3l-0.1,0.4l9.6,8L434.7,377z"/>
</svg>
